<svg width="372" height="70" viewBox="0 0 372 70" fill="none" xmlns="http://www.w3.org/2000/svg">
<path d="M61.9763 33V6.4H71.9703C74.1237 6.4 75.897 6.76733 77.2903 7.502C78.709 8.21133 79.7603 9.18667 80.4443 10.428C81.1283 11.6693 81.4703 13.0753 81.4703 14.646C81.4703 16.09 81.141 17.4327 80.4823 18.674C79.8237 19.9153 78.785 20.9287 77.3663 21.714C75.973 22.474 74.1743 22.854 71.9703 22.854H67.1063V33H61.9763ZM67.1063 18.712H71.6663C73.2877 18.712 74.453 18.3447 75.1623 17.61C75.897 16.8753 76.2643 15.8873 76.2643 14.646C76.2643 13.354 75.897 12.3533 75.1623 11.644C74.453 10.9347 73.2877 10.58 71.6663 10.58H67.1063V18.712ZM88.8729 33.456C87.3529 33.456 86.0989 33.2027 85.1109 32.696C84.1483 32.1893 83.4389 31.5053 82.9829 30.644C82.5269 29.7827 82.2989 28.8327 82.2989 27.794C82.2989 26.6287 82.5903 25.6027 83.1729 24.716C83.7809 23.8293 84.6803 23.1453 85.8709 22.664C87.0869 22.1573 88.6196 21.904 90.4689 21.904H95.2189C95.2189 20.9667 95.0796 20.194 94.8009 19.586C94.5476 18.978 94.1423 18.5347 93.5849 18.256C93.0529 17.952 92.3689 17.8 91.5329 17.8C90.5703 17.8 89.7343 18.0153 89.0249 18.446C88.3156 18.8767 87.8849 19.5607 87.7329 20.498H82.7549C82.8816 19.1047 83.3249 17.9013 84.0849 16.888C84.8703 15.8747 85.8963 15.0893 87.1629 14.532C88.4549 13.9747 89.9243 13.696 91.5709 13.696C93.3696 13.696 94.9276 14 96.2449 14.608C97.5623 15.1907 98.5756 16.0647 99.2849 17.23C99.9943 18.37 100.349 19.7633 100.349 21.41V33H96.0929L95.5609 30.074H95.4089C95.0543 30.6313 94.6363 31.1253 94.1549 31.556C93.6989 31.9867 93.1923 32.3413 92.6349 32.62C92.1029 32.8987 91.5203 33.1013 90.8869 33.228C90.2536 33.38 89.5823 33.456 88.8729 33.456ZM90.5069 29.504C91.1909 29.504 91.7989 29.39 92.3309 29.162C92.8629 28.9087 93.3063 28.5793 93.6609 28.174C94.0409 27.7687 94.3449 27.3 94.5729 26.768C94.8009 26.2107 94.9529 25.6407 95.0289 25.058H91.0769C90.2916 25.058 89.6456 25.1593 89.1389 25.362C88.6323 25.5393 88.2649 25.8053 88.0369 26.16C87.8089 26.4893 87.6949 26.882 87.6949 27.338C87.6949 27.794 87.8089 28.1867 88.0369 28.516C88.2903 28.8453 88.6196 29.0987 89.0249 29.276C89.4556 29.428 89.9496 29.504 90.5069 29.504ZM112.771 33.456C110.77 33.456 109.022 33.038 107.527 32.202C106.058 31.3407 104.905 30.1753 104.069 28.706C103.258 27.2113 102.853 25.5013 102.853 23.576C102.853 21.6507 103.271 19.9533 104.107 18.484C104.968 16.9893 106.134 15.824 107.603 14.988C109.098 14.1267 110.82 13.696 112.771 13.696C115.203 13.696 117.255 14.3293 118.927 15.596C120.599 16.8627 121.65 18.6107 122.081 20.84H116.647C116.444 19.928 115.976 19.2313 115.241 18.75C114.532 18.2433 113.696 17.99 112.733 17.99C111.846 17.99 111.048 18.218 110.339 18.674C109.655 19.1047 109.11 19.738 108.705 20.574C108.3 21.41 108.097 22.4107 108.097 23.576C108.097 24.4373 108.211 25.21 108.439 25.894C108.667 26.5527 108.984 27.1353 109.389 27.642C109.82 28.1233 110.314 28.4907 110.871 28.744C111.428 28.972 112.049 29.086 112.733 29.086C113.392 29.086 113.987 28.9847 114.519 28.782C115.051 28.554 115.507 28.2373 115.887 27.832C116.267 27.4013 116.52 26.8947 116.647 26.312H122.081C121.65 28.4907 120.599 30.226 118.927 31.518C117.255 32.81 115.203 33.456 112.771 33.456ZM125.293 33V14.152H130.423V33H125.293ZM127.877 11.72C126.94 11.72 126.18 11.4413 125.597 10.884C125.014 10.3267 124.723 9.64267 124.723 8.832C124.723 7.996 125.014 7.29933 125.597 6.742C126.18 6.18466 126.94 5.906 127.877 5.906C128.814 5.906 129.574 6.18466 130.157 6.742C130.765 7.29933 131.069 7.996 131.069 8.832C131.069 9.64267 130.765 10.3267 130.157 10.884C129.574 11.4413 128.814 11.72 127.877 11.72ZM135.629 33V12.784C135.629 11.2133 135.895 9.95933 136.427 9.022C136.959 8.05933 137.719 7.36267 138.707 6.932C139.695 6.50133 140.86 6.286 142.203 6.286H144.331V10.58H143.001C142.19 10.58 141.608 10.7447 141.253 11.074C140.924 11.4033 140.759 11.948 140.759 12.708V33H135.629ZM133.045 18.294V14.152H144.711V18.294H133.045ZM147.373 33V14.152H152.503V33H147.373ZM149.957 11.72C149.02 11.72 148.26 11.4413 147.677 10.884C147.094 10.3267 146.803 9.64267 146.803 8.832C146.803 7.996 147.094 7.29933 147.677 6.742C148.26 6.18466 149.02 5.906 149.957 5.906C150.894 5.906 151.654 6.18466 152.237 6.742C152.845 7.29933 153.149 7.996 153.149 8.832C153.149 9.64267 152.845 10.3267 152.237 10.884C151.654 11.4413 150.894 11.72 149.957 11.72ZM165.689 33.456C163.688 33.456 161.94 33.038 160.445 32.202C158.976 31.3407 157.823 30.1753 156.987 28.706C156.176 27.2113 155.771 25.5013 155.771 23.576C155.771 21.6507 156.189 19.9533 157.025 18.484C157.886 16.9893 159.052 15.824 160.521 14.988C162.016 14.1267 163.738 13.696 165.689 13.696C168.121 13.696 170.173 14.3293 171.845 15.596C173.517 16.8627 174.568 18.6107 174.999 20.84H169.565C169.362 19.928 168.894 19.2313 168.159 18.75C167.45 18.2433 166.614 17.99 165.651 17.99C164.764 17.99 163.966 18.218 163.257 18.674C162.573 19.1047 162.028 19.738 161.623 20.574C161.218 21.41 161.015 22.4107 161.015 23.576C161.015 24.4373 161.129 25.21 161.357 25.894C161.585 26.5527 161.902 27.1353 162.307 27.642C162.738 28.1233 163.232 28.4907 163.789 28.744C164.346 28.972 164.967 29.086 165.651 29.086C166.31 29.086 166.905 28.9847 167.437 28.782C167.969 28.554 168.425 28.2373 168.805 27.832C169.185 27.4013 169.438 26.8947 169.565 26.312H174.999C174.568 28.4907 173.517 30.226 171.845 31.518C170.173 32.81 168.121 33.456 165.689 33.456ZM184.067 33L192.655 6.4H200.749L209.299 33H203.865L196.759 9.744H196.645L189.425 33H184.067ZM188.361 25.552L189.729 21.562H203.257L204.587 25.552H188.361ZM220.015 33.456C218.09 33.456 216.38 33.0507 214.885 32.24C213.416 31.4293 212.263 30.2893 211.427 28.82C210.591 27.3507 210.173 25.666 210.173 23.766C210.173 21.79 210.579 20.0547 211.389 18.56C212.225 17.04 213.378 15.8493 214.847 14.988C216.342 14.1267 218.077 13.696 220.053 13.696C221.928 13.696 223.575 14.1013 224.993 14.912C226.412 15.7227 227.527 16.8373 228.337 18.256C229.148 19.6493 229.553 21.2327 229.553 23.006C229.553 23.2593 229.553 23.5507 229.553 23.88C229.553 24.184 229.528 24.5007 229.477 24.83H213.821V21.676H224.347C224.271 20.4853 223.828 19.5353 223.017 18.826C222.232 18.1167 221.244 17.762 220.053 17.762C219.167 17.762 218.356 17.9647 217.621 18.37C216.887 18.75 216.304 19.3453 215.873 20.156C215.443 20.9413 215.227 21.942 215.227 23.158V24.26C215.227 25.2987 215.43 26.198 215.835 26.958C216.241 27.6927 216.798 28.2627 217.507 28.668C218.242 29.0733 219.065 29.276 219.977 29.276C220.915 29.276 221.7 29.0733 222.333 28.668C222.967 28.2373 223.448 27.6927 223.777 27.034H229.021C228.641 28.2247 228.033 29.314 227.197 30.302C226.361 31.2647 225.335 32.0373 224.119 32.62C222.903 33.1773 221.535 33.456 220.015 33.456ZM232.044 33V14.152H236.452L236.87 18.218H237.022C237.579 16.9513 238.187 16.0013 238.846 15.368C239.505 14.7093 240.252 14.266 241.088 14.038C241.949 13.81 242.912 13.696 243.976 13.696V19.13H242.608C241.747 19.13 240.974 19.2313 240.29 19.434C239.606 19.6113 239.036 19.9153 238.58 20.346C238.124 20.7513 237.769 21.296 237.516 21.98C237.288 22.664 237.174 23.4873 237.174 24.45V33H232.044ZM254.709 33.456C252.885 33.456 251.238 33.038 249.769 32.202C248.3 31.366 247.134 30.2007 246.273 28.706C245.437 27.2113 245.019 25.5013 245.019 23.576C245.019 21.6253 245.45 19.9153 246.311 18.446C247.172 16.9513 248.338 15.786 249.807 14.95C251.276 14.114 252.91 13.696 254.709 13.696C256.533 13.696 258.18 14.114 259.649 14.95C261.118 15.786 262.271 16.9513 263.107 18.446C263.968 19.9153 264.399 21.6253 264.399 23.576C264.399 25.5267 263.968 27.2493 263.107 28.744C262.246 30.2133 261.08 31.366 259.611 32.202C258.167 33.038 256.533 33.456 254.709 33.456ZM254.671 29.124C255.507 29.124 256.254 28.9213 256.913 28.516C257.597 28.1107 258.142 27.5027 258.547 26.692C258.978 25.856 259.193 24.8173 259.193 23.576C259.193 22.3347 258.978 21.3087 258.547 20.498C258.142 19.662 257.597 19.0413 256.913 18.636C256.254 18.2307 255.532 18.028 254.747 18.028C253.936 18.028 253.189 18.2307 252.505 18.636C251.821 19.0413 251.276 19.662 250.871 20.498C250.466 21.3087 250.263 22.3347 250.263 23.576C250.263 24.8173 250.466 25.856 250.871 26.692C251.276 27.5027 251.808 28.1107 252.467 28.516C253.151 28.9213 253.886 29.124 254.671 29.124ZM275.017 33.456C273.345 33.456 271.863 33.1773 270.571 32.62C269.304 32.0627 268.278 31.3027 267.493 30.34C266.733 29.352 266.289 28.2373 266.163 26.996H271.293C271.394 27.452 271.597 27.8827 271.901 28.288C272.205 28.6933 272.61 29.0227 273.117 29.276C273.649 29.504 274.257 29.618 274.941 29.618C275.65 29.618 276.22 29.5293 276.651 29.352C277.081 29.1493 277.398 28.896 277.601 28.592C277.803 28.2627 277.905 27.9333 277.905 27.604C277.905 27.1227 277.753 26.7427 277.449 26.464C277.145 26.1853 276.689 25.9573 276.081 25.78C275.498 25.5773 274.801 25.362 273.991 25.134C273.155 24.906 272.306 24.6653 271.445 24.412C270.609 24.1587 269.836 23.842 269.127 23.462C268.417 23.0567 267.847 22.55 267.417 21.942C266.986 21.3087 266.771 20.5233 266.771 19.586C266.771 18.4967 267.075 17.5087 267.683 16.622C268.316 15.7353 269.203 15.026 270.343 14.494C271.483 13.962 272.863 13.696 274.485 13.696C276.765 13.696 278.576 14.2153 279.919 15.254C281.287 16.2927 282.085 17.724 282.313 19.548H277.487C277.36 18.9147 277.031 18.4333 276.499 18.104C275.992 17.7493 275.321 17.572 274.485 17.572C273.598 17.572 272.914 17.7367 272.433 18.066C271.977 18.3953 271.749 18.8007 271.749 19.282C271.749 19.6367 271.901 19.9407 272.205 20.194C272.534 20.4473 272.99 20.6627 273.573 20.84C274.155 21.0173 274.865 21.22 275.701 21.448C277.043 21.8027 278.259 22.1827 279.349 22.588C280.463 22.9933 281.35 23.5507 282.009 24.26C282.693 24.944 283.035 25.932 283.035 27.224C283.06 28.4147 282.743 29.4787 282.085 30.416C281.426 31.3533 280.501 32.1007 279.311 32.658C278.12 33.19 276.689 33.456 275.017 33.456ZM285.708 40.676V14.152H290.078L290.382 17.382H290.534C290.99 16.622 291.547 15.976 292.206 15.444C292.89 14.8867 293.663 14.456 294.524 14.152C295.385 13.848 296.335 13.696 297.374 13.696C299.147 13.696 300.693 14.1267 302.01 14.988C303.353 15.824 304.391 16.9893 305.126 18.484C305.861 19.9787 306.228 21.676 306.228 23.576C306.228 25.476 305.861 27.1733 305.126 28.668C304.391 30.1627 303.353 31.3407 302.01 32.202C300.667 33.038 299.071 33.456 297.222 33.456C295.753 33.456 294.473 33.1773 293.384 32.62C292.32 32.0627 291.471 31.366 290.838 30.53V40.676H285.708ZM295.93 29.238C296.943 29.238 297.83 28.9973 298.59 28.516C299.375 28.0347 299.983 27.376 300.414 26.54C300.845 25.6787 301.06 24.7033 301.06 23.614C301.06 22.4993 300.845 21.524 300.414 20.688C299.983 19.8267 299.375 19.1553 298.59 18.674C297.83 18.1927 296.943 17.952 295.93 17.952C294.891 17.952 293.979 18.1927 293.194 18.674C292.434 19.1553 291.839 19.8267 291.408 20.688C290.977 21.524 290.762 22.4993 290.762 23.614C290.762 24.7033 290.977 25.6787 291.408 26.54C291.839 27.376 292.434 28.0347 293.194 28.516C293.979 28.9973 294.891 29.238 295.93 29.238ZM315.129 33.456C313.609 33.456 312.355 33.2027 311.367 32.696C310.404 32.1893 309.695 31.5053 309.239 30.644C308.783 29.7827 308.555 28.8327 308.555 27.794C308.555 26.6287 308.846 25.6027 309.429 24.716C310.037 23.8293 310.936 23.1453 312.127 22.664C313.343 22.1573 314.875 21.904 316.725 21.904H321.475C321.475 20.9667 321.335 20.194 321.057 19.586C320.803 18.978 320.398 18.5347 319.841 18.256C319.309 17.952 318.625 17.8 317.789 17.8C316.826 17.8 315.99 18.0153 315.281 18.446C314.571 18.8767 314.141 19.5607 313.989 20.498H309.011C309.137 19.1047 309.581 17.9013 310.341 16.888C311.126 15.8747 312.152 15.0893 313.419 14.532C314.711 13.9747 316.18 13.696 317.827 13.696C319.625 13.696 321.183 14 322.501 14.608C323.818 15.1907 324.831 16.0647 325.541 17.23C326.25 18.37 326.605 19.7633 326.605 21.41V33H322.349L321.817 30.074H321.665C321.31 30.6313 320.892 31.1253 320.411 31.556C319.955 31.9867 319.448 32.3413 318.891 32.62C318.359 32.8987 317.776 33.1013 317.143 33.228C316.509 33.38 315.838 33.456 315.129 33.456ZM316.763 29.504C317.447 29.504 318.055 29.39 318.587 29.162C319.119 28.9087 319.562 28.5793 319.917 28.174C320.297 27.7687 320.601 27.3 320.829 26.768C321.057 26.2107 321.209 25.6407 321.285 25.058H317.333C316.547 25.058 315.901 25.1593 315.395 25.362C314.888 25.5393 314.521 25.8053 314.293 26.16C314.065 26.4893 313.951 26.882 313.951 27.338C313.951 27.794 314.065 28.1867 314.293 28.516C314.546 28.8453 314.875 29.0987 315.281 29.276C315.711 29.428 316.205 29.504 316.763 29.504ZM339.027 33.456C337.026 33.456 335.278 33.038 333.783 32.202C332.314 31.3407 331.161 30.1753 330.325 28.706C329.514 27.2113 329.109 25.5013 329.109 23.576C329.109 21.6507 329.527 19.9533 330.363 18.484C331.224 16.9893 332.39 15.824 333.859 14.988C335.354 14.1267 337.076 13.696 339.027 13.696C341.459 13.696 343.511 14.3293 345.183 15.596C346.855 16.8627 347.906 18.6107 348.337 20.84H342.903C342.7 19.928 342.232 19.2313 341.497 18.75C340.788 18.2433 339.952 17.99 338.989 17.99C338.102 17.99 337.304 18.218 336.595 18.674C335.911 19.1047 335.366 19.738 334.961 20.574C334.556 21.41 334.353 22.4107 334.353 23.576C334.353 24.4373 334.467 25.21 334.695 25.894C334.923 26.5527 335.24 27.1353 335.645 27.642C336.076 28.1233 336.57 28.4907 337.127 28.744C337.684 28.972 338.305 29.086 338.989 29.086C339.648 29.086 340.243 28.9847 340.775 28.782C341.307 28.554 341.763 28.2373 342.143 27.832C342.523 27.4013 342.776 26.8947 342.903 26.312H348.337C347.906 28.4907 346.855 30.226 345.183 31.518C343.511 32.81 341.459 33.456 339.027 33.456ZM360.289 33.456C358.363 33.456 356.653 33.0507 355.159 32.24C353.689 31.4293 352.537 30.2893 351.701 28.82C350.865 27.3507 350.447 25.666 350.447 23.766C350.447 21.79 350.852 20.0547 351.663 18.56C352.499 17.04 353.651 15.8493 355.121 14.988C356.615 14.1267 358.351 13.696 360.327 13.696C362.201 13.696 363.848 14.1013 365.267 14.912C366.685 15.7227 367.8 16.8373 368.611 18.256C369.421 19.6493 369.827 21.2327 369.827 23.006C369.827 23.2593 369.827 23.5507 369.827 23.88C369.827 24.184 369.801 24.5007 369.751 24.83H354.095V21.676H364.621C364.545 20.4853 364.101 19.5353 363.291 18.826C362.505 18.1167 361.517 17.762 360.327 17.762C359.44 17.762 358.629 17.9647 357.895 18.37C357.16 18.75 356.577 19.3453 356.147 20.156C355.716 20.9413 355.501 21.942 355.501 23.158V24.26C355.501 25.2987 355.703 26.198 356.109 26.958C356.514 27.6927 357.071 28.2627 357.781 28.668C358.515 29.0733 359.339 29.276 360.251 29.276C361.188 29.276 361.973 29.0733 362.607 28.668C363.24 28.2373 363.721 27.6927 364.051 27.034H369.295C368.915 28.2247 368.307 29.314 367.471 30.302C366.635 31.2647 365.609 32.0373 364.393 32.62C363.177 33.1773 361.809 33.456 360.289 33.456Z" fill="white"/>
<path d="M67.68 56.5154C66.28 56.5154 65.0733 56.2154 64.06 55.6154C63.0467 55.0021 62.2667 54.1554 61.72 53.0754C61.1733 51.9821 60.9 50.7221 60.9 49.2954C60.9 47.8687 61.1733 46.6087 61.72 45.5154C62.2667 44.4221 63.0467 43.5687 64.06 42.9554C65.0733 42.3421 66.28 42.0354 67.68 42.0354C69.3867 42.0354 70.78 42.4554 71.86 43.2954C72.94 44.1354 73.6133 45.3221 73.88 46.8554H70.92C70.7467 46.1087 70.3867 45.5287 69.84 45.1154C69.2933 44.6887 68.5667 44.4754 67.66 44.4754C66.82 44.4754 66.1 44.6754 65.5 45.0754C64.9 45.4621 64.44 46.0154 64.12 46.7354C63.8133 47.4421 63.66 48.2954 63.66 49.2954C63.66 50.2821 63.8133 51.1354 64.12 51.8554C64.44 52.5754 64.9 53.1287 65.5 53.5154C66.1 53.9021 66.82 54.0954 67.66 54.0954C68.5667 54.0954 69.2933 53.9021 69.84 53.5154C70.3867 53.1154 70.7467 52.5621 70.92 51.8554H73.88C73.6133 53.3087 72.94 54.4487 71.86 55.2754C70.78 56.1021 69.3867 56.5154 67.68 56.5154ZM80.8652 56.5154C79.9052 56.5154 79.0385 56.2954 78.2652 55.8554C77.5052 55.4021 76.8985 54.7821 76.4452 53.9954C75.9918 53.2087 75.7652 52.3087 75.7652 51.2954C75.7652 50.2554 75.9918 49.3421 76.4452 48.5554C76.8985 47.7687 77.5118 47.1554 78.2852 46.7154C79.0585 46.2754 79.9185 46.0554 80.8652 46.0554C81.8385 46.0554 82.7118 46.2754 83.4852 46.7154C84.2585 47.1554 84.8652 47.7687 85.3052 48.5554C85.7585 49.3421 85.9852 50.2554 85.9852 51.2954C85.9852 52.3221 85.7585 53.2287 85.3052 54.0154C84.8518 54.7887 84.2385 55.4021 83.4652 55.8554C82.6918 56.2954 81.8252 56.5154 80.8652 56.5154ZM80.8652 54.1754C81.3052 54.1754 81.6985 54.0687 82.0452 53.8554C82.4052 53.6421 82.6918 53.3221 82.9052 52.8954C83.1185 52.4554 83.2252 51.9154 83.2252 51.2754C83.2252 50.6354 83.1185 50.1021 82.9052 49.6754C82.6918 49.2487 82.4052 48.9287 82.0452 48.7154C81.6985 48.5021 81.3118 48.3954 80.8852 48.3954C80.4585 48.3954 80.0652 48.5021 79.7052 48.7154C79.3452 48.9287 79.0585 49.2487 78.8452 49.6754C78.6318 50.1021 78.5252 50.6421 78.5252 51.2954C78.5252 51.9221 78.6318 52.4554 78.8452 52.8954C79.0585 53.3221 79.3385 53.6421 79.6852 53.8554C80.0452 54.0687 80.4385 54.1754 80.8652 54.1754ZM88.2727 56.2754V46.2954H90.6527L90.8527 47.9554C91.1727 47.3821 91.6127 46.9221 92.1727 46.5754C92.746 46.2287 93.4327 46.0554 94.2327 46.0554C95.0593 46.0554 95.7593 46.2287 96.3327 46.5754C96.906 46.9221 97.346 47.4354 97.6527 48.1154C97.9593 48.7954 98.1127 49.6287 98.1127 50.6154V56.2754H95.4127V50.8554C95.4127 50.0421 95.246 49.4221 94.9127 48.9954C94.5793 48.5554 94.0527 48.3354 93.3327 48.3354C92.8793 48.3354 92.4727 48.4421 92.1127 48.6554C91.766 48.8687 91.486 49.1821 91.2727 49.5954C91.0727 49.9954 90.9727 50.4821 90.9727 51.0554V56.2754H88.2727ZM104.697 56.5154C103.804 56.5154 103.017 56.3687 102.337 56.0754C101.671 55.7821 101.137 55.3821 100.737 54.8754C100.337 54.3554 100.104 53.7687 100.037 53.1154H102.737C102.791 53.3554 102.897 53.5821 103.057 53.7954C103.231 53.9954 103.451 54.1554 103.717 54.2754C103.997 54.3954 104.317 54.4554 104.677 54.4554C105.037 54.4554 105.331 54.4087 105.557 54.3154C105.784 54.2087 105.951 54.0754 106.057 53.9154C106.164 53.7421 106.217 53.5621 106.217 53.3754C106.217 53.0954 106.137 52.8887 105.977 52.7554C105.817 52.6087 105.577 52.4887 105.257 52.3954C104.951 52.3021 104.584 52.2087 104.157 52.1154C103.704 52.0087 103.251 51.8887 102.797 51.7554C102.357 51.6221 101.951 51.4487 101.577 51.2354C101.204 51.0221 100.904 50.7554 100.677 50.4354C100.464 50.1021 100.357 49.6887 100.357 49.1954C100.357 48.6087 100.517 48.0754 100.837 47.5954C101.157 47.1154 101.624 46.7421 102.237 46.4754C102.851 46.1954 103.584 46.0554 104.437 46.0554C105.637 46.0554 106.591 46.3287 107.297 46.8754C108.017 47.4221 108.437 48.1754 108.557 49.1354H106.017C105.951 48.8154 105.777 48.5687 105.497 48.3954C105.231 48.2221 104.871 48.1354 104.417 48.1354C103.951 48.1354 103.591 48.2221 103.337 48.3954C103.097 48.5687 102.977 48.7821 102.977 49.0354C102.977 49.2221 103.057 49.3887 103.217 49.5354C103.391 49.6687 103.631 49.7887 103.937 49.8954C104.257 50.0021 104.624 50.1021 105.037 50.1954C105.784 50.3554 106.444 50.5354 107.017 50.7354C107.604 50.9354 108.071 51.2221 108.417 51.5954C108.764 51.9687 108.937 52.5154 108.937 53.2354C108.937 53.8621 108.764 54.4287 108.417 54.9354C108.084 55.4287 107.597 55.8154 106.957 56.0954C106.331 56.3754 105.577 56.5154 104.697 56.5154ZM114.923 56.5154C114.109 56.5154 113.409 56.3421 112.823 55.9954C112.249 55.6487 111.809 55.1421 111.503 54.4754C111.196 53.7954 111.043 52.9621 111.043 51.9754V46.2954H113.743V51.7154C113.743 52.5287 113.909 53.1554 114.243 53.5954C114.576 54.0221 115.103 54.2354 115.823 54.2354C116.276 54.2354 116.676 54.1287 117.023 53.9154C117.383 53.7021 117.663 53.3954 117.863 52.9954C118.063 52.5954 118.163 52.1021 118.163 51.5154V46.2954H120.863V56.2754H118.503L118.283 54.6154C117.976 55.1887 117.536 55.6487 116.963 55.9954C116.389 56.3421 115.709 56.5154 114.923 56.5154ZM123.488 56.2754V41.8754H126.188V56.2754H123.488ZM133.32 56.2754C132.613 56.2754 131.993 56.1687 131.46 55.9554C130.94 55.7287 130.533 55.3621 130.24 54.8554C129.947 54.3354 129.8 53.6287 129.8 52.7354V48.5554H128.1V46.2954H129.8L130.1 43.5754H132.5V46.2954H135.14V48.5554H132.5V52.7754C132.5 53.2287 132.6 53.5421 132.8 53.7154C133 53.8887 133.34 53.9754 133.82 53.9754H135.1V56.2754H133.32ZM137.454 56.2754V46.2954H140.154V56.2754H137.454ZM138.814 44.8754C138.321 44.8754 137.921 44.7354 137.614 44.4554C137.308 44.1621 137.154 43.7954 137.154 43.3554C137.154 42.9154 137.308 42.5554 137.614 42.2754C137.921 41.9821 138.321 41.8354 138.814 41.8354C139.308 41.8354 139.708 41.9821 140.014 42.2754C140.334 42.5554 140.494 42.9154 140.494 43.3554C140.494 43.7954 140.334 44.1621 140.014 44.4554C139.708 44.7354 139.308 44.8754 138.814 44.8754ZM142.843 56.2754V46.2954H145.223L145.423 47.9554C145.743 47.3821 146.183 46.9221 146.743 46.5754C147.316 46.2287 148.003 46.0554 148.803 46.0554C149.63 46.0554 150.33 46.2287 150.903 46.5754C151.476 46.9221 151.916 47.4354 152.223 48.1154C152.53 48.7954 152.683 49.6287 152.683 50.6154V56.2754H149.983V50.8554C149.983 50.0421 149.816 49.4221 149.483 48.9954C149.15 48.5554 148.623 48.3354 147.903 48.3354C147.45 48.3354 147.043 48.4421 146.683 48.6554C146.336 48.8687 146.056 49.1821 145.843 49.5954C145.643 49.9954 145.543 50.4821 145.543 51.0554V56.2754H142.843ZM159.488 60.9154C158.528 60.9154 157.688 60.7954 156.968 60.5554C156.261 60.3287 155.708 59.9754 155.308 59.4954C154.921 59.0287 154.728 58.4487 154.728 57.7554C154.728 57.2887 154.848 56.8487 155.088 56.4354C155.328 56.0221 155.681 55.6487 156.148 55.3154C156.614 54.9821 157.188 54.6887 157.868 54.4354L158.868 55.7754C158.268 55.9754 157.834 56.2221 157.568 56.5154C157.301 56.8221 157.168 57.1421 157.168 57.4754C157.168 57.7821 157.268 58.0421 157.468 58.2554C157.681 58.4687 157.961 58.6221 158.308 58.7154C158.654 58.8221 159.048 58.8754 159.488 58.8754C159.901 58.8754 160.261 58.8221 160.568 58.7154C160.888 58.6087 161.134 58.4487 161.308 58.2354C161.481 58.0354 161.568 57.8021 161.568 57.5354C161.568 57.1754 161.441 56.8821 161.188 56.6554C160.948 56.4287 160.454 56.2887 159.708 56.2354C159.028 56.1821 158.421 56.1087 157.888 56.0154C157.368 55.9087 156.908 55.7887 156.508 55.6554C156.121 55.5087 155.788 55.3487 155.508 55.1754C155.228 55.0021 155.001 54.8287 154.828 54.6554V54.1954L156.968 51.8954L158.888 52.4954L156.388 54.9954L157.168 53.6754C157.301 53.7687 157.434 53.8554 157.568 53.9354C157.714 54.0021 157.894 54.0621 158.108 54.1154C158.321 54.1687 158.594 54.2221 158.928 54.2754C159.274 54.3287 159.708 54.3754 160.228 54.4154C161.108 54.4954 161.828 54.6621 162.388 54.9154C162.961 55.1687 163.381 55.5087 163.648 55.9354C163.914 56.3487 164.048 56.8621 164.048 57.4754C164.048 58.0621 163.881 58.6154 163.548 59.1354C163.228 59.6687 162.728 60.0954 162.048 60.4154C161.381 60.7487 160.528 60.9154 159.488 60.9154ZM159.508 53.3354C158.654 53.3354 157.921 53.1754 157.308 52.8554C156.708 52.5221 156.248 52.0821 155.928 51.5354C155.608 50.9754 155.448 50.3621 155.448 49.6954C155.448 49.0154 155.608 48.4021 155.928 47.8554C156.248 47.3087 156.714 46.8754 157.328 46.5554C157.941 46.2221 158.668 46.0554 159.508 46.0554C160.348 46.0554 161.068 46.2221 161.668 46.5554C162.281 46.8754 162.748 47.3087 163.068 47.8554C163.388 48.4021 163.548 49.0154 163.548 49.6954C163.548 50.3621 163.388 50.9754 163.068 51.5354C162.748 52.0821 162.281 52.5221 161.668 52.8554C161.068 53.1754 160.348 53.3354 159.508 53.3354ZM159.508 51.2754C160.014 51.2754 160.428 51.1421 160.748 50.8754C161.068 50.5954 161.228 50.2021 161.228 49.6954C161.228 49.2021 161.068 48.8221 160.748 48.5554C160.428 48.2887 160.014 48.1554 159.508 48.1554C158.988 48.1554 158.561 48.2887 158.228 48.5554C157.908 48.8221 157.748 49.2021 157.748 49.6954C157.748 50.2021 157.908 50.5954 158.228 50.8754C158.561 51.1421 158.988 51.2754 159.508 51.2754ZM161.148 48.1954L160.688 46.2954H164.848V47.8954L161.148 48.1954Z" fill="#4DB8FF"/>
<path d="M0 26.9543C0 15.5337 9.25829 6.27539 20.679 6.27539V34.8408C20.679 46.2615 11.4207 55.5198 0 55.5198V26.9543Z" fill="#1A6FBF"/>
<path d="M23.6787 17.5122C23.6787 11.3063 28.7096 6.27539 34.9155 6.27539C41.1214 6.27539 46.1523 11.3063 46.1523 17.5122V18.1609C46.1523 24.3668 41.1214 29.3977 34.9155 29.3977C28.7096 29.3977 23.6787 24.3668 23.6787 18.1609V17.5122Z" fill="#4DB8FF"/>
<path d="M23.6787 43.6342C23.6787 37.4283 28.7096 32.3975 34.9155 32.3975C41.1214 32.3975 46.1523 37.4283 46.1523 43.6342V44.283C46.1523 50.4889 41.1214 55.5198 34.9155 55.5198C28.7096 55.5198 23.6787 50.4889 23.6787 44.283V43.6342Z" fill="#0D2240"/>
</svg>
