<svg width="2473" height="351" viewBox="0 0 2473 351" fill="none" xmlns="http://www.w3.org/2000/svg">
<path d="M575.586 43.2246C658.949 43.2246 719.287 101.327 719.287 181.55C719.287 261.382 658.552 319.874 574.396 319.874H461.658V43.2246H575.586ZM508.5 277.977H576.778C630.765 277.977 672.049 238.062 672.049 181.941C672.049 125.426 629.575 85.1133 574.793 85.1133H508.5V277.977Z" fill="#00031B"/>
<path d="M946.885 232.594H789.041C796.109 264.888 820.845 284.974 853.828 284.974C876.602 284.974 897.412 276.306 912.725 260.556L936.677 286.155C916.259 308.605 886.423 321.601 850.294 321.601C785.9 321.601 743.494 278.672 743.494 215.658C743.494 152.249 787.077 109.321 849.116 108.928C922.541 108.928 952.382 156.976 946.885 232.594ZM907.621 199.511C906.05 165.64 883.669 145.157 849.509 145.157C816.526 145.157 793.36 166.032 788.256 199.511H907.621Z" fill="#00031B"/>
<path d="M1122.78 294.082C1107.88 312.559 1083.94 321.6 1053.74 321.6C1008.62 321.6 980.375 293.688 980.375 256.735C980.375 218.604 1009.01 194.23 1059.23 193.837H1122.39V187.544C1122.39 161.205 1105.52 145.481 1072.57 145.481C1052.56 145.481 1031.77 152.557 1010.97 166.709L992.537 135.26C1021.57 117.962 1042.75 108.922 1082.37 108.922C1136.12 108.922 1166.33 136.44 1166.72 182.434L1167.11 319.631H1122.78V294.082ZM1122.39 246.123V226.86H1065.9C1036.47 226.86 1022.74 234.723 1022.74 254.769C1022.74 273.64 1038.04 285.826 1063.15 285.826C1095.32 285.826 1120.04 268.923 1122.39 246.123Z" fill="#00031B"/>
<path d="M1229.36 318.142V25.9316H1274.32V318.142H1229.36Z" fill="#00031B"/>
<path d="M1470.77 236.086C1466.85 236.48 1462.54 236.48 1458.23 236.48H1393.18V319.868H1346.94V43.2246H1458.24C1528.38 43.2246 1568.74 77.608 1568.74 137.681C1568.74 181.944 1548.36 213.166 1511.92 227.393L1573.45 319.874H1520.93L1470.77 236.09V236.086ZM1458.23 194.587C1500.56 194.587 1524.85 176.408 1524.85 138.863C1524.85 102.505 1500.56 85.1145 1458.23 85.1145H1393.18V194.587H1458.23Z" fill="#00031B"/>
<path d="M1827.61 215.264C1827.61 278.278 1782.9 321.601 1718.01 321.601C1652.73 321.601 1608.02 278.278 1608.02 215.264C1608.02 151.857 1652.73 108.928 1718.01 108.928C1782.9 108.928 1827.61 151.857 1827.61 215.264ZM1653.52 215.658C1653.52 256.224 1680.03 283.792 1718.01 283.792C1755.6 283.792 1782.11 256.224 1782.11 215.658C1782.11 175.487 1755.6 147.917 1718.01 147.917C1680.03 147.917 1653.52 175.487 1653.52 215.658Z" fill="#00031B"/>
<path d="M2076.6 215.264C2076.6 278.278 2031.89 321.601 1967 321.601C1901.71 321.601 1857 278.278 1857 215.264C1857 151.857 1901.71 108.928 1967 108.928C2031.89 108.928 2076.6 151.857 2076.6 215.264ZM1902.51 215.658C1902.51 256.224 1929.02 283.792 1967 283.792C2004.59 283.792 2031.1 256.224 2031.1 215.658C2031.1 175.487 2004.59 147.917 1967 147.917C1929.02 147.917 1902.51 175.487 1902.51 215.658Z" fill="#00031B"/>
<path d="M2472.55 190.265V321.6H2427.15V202.962C2427.15 170.824 2408.19 151.381 2377.4 151.381C2341.47 152.571 2319.75 180.346 2319.75 217.246V321.6H2274.35V202.962C2274.35 170.824 2255.79 151.381 2225 151.381C2188.67 152.571 2166.56 180.346 2166.56 217.246V321.6H2121.55V110.51H2166.56V151.379C2181.17 121.625 2208.02 108.924 2242.76 108.924C2280.27 108.924 2305.94 127.572 2315.81 159.711C2329.23 124.398 2357.26 108.924 2395.56 108.924C2443.73 108.924 2472.55 139.872 2472.55 190.263V190.265Z" fill="#00031B"/>
<path d="M0 0V345.802H344.083V0H0ZM44.2409 300.351V45.451H147.465V300.351H44.2409ZM191.702 125.475V45.451H298.86V125.481L191.702 125.475ZM191.702 300.357V169.938H298.86V300.351L191.702 300.357Z" fill="#0077DB"/>
</svg>
